# Blender v2.79 (sub 0) OBJ File: ''
# www.blender.org
mtllib Brick.mtl
o Cube5.001
v 0.444101 -0.145176 0.218957
v 0.362770 -0.166969 0.218957
v 0.641102 -0.269554 0.218957
v -0.656025 -0.269554 0.218957
v -0.371058 -0.166969 0.218957
v -0.452389 -0.145176 0.218957
v -0.511928 -0.085638 0.218957
v 0.503640 -0.085638 0.218957
v -0.013264 -0.166569 0.218957
v 0.275079 -0.141522 0.218957
v 0.072542 -0.145176 0.218957
v 0.132081 -0.085638 0.218957
v 0.209985 -0.083191 0.218957
v 0.189931 -0.008346 0.218957
v 0.153873 -0.004307 0.218957
v 0.209985 0.066498 0.218957
v 0.132081 0.077024 0.218957
v 0.255780 0.119447 0.218957
v 0.072542 0.136563 0.218957
v -0.533720 -0.004307 0.218957
v 0.525432 -0.004307 0.218957
v -0.656025 0.290654 0.218957
v 0.641102 0.290654 0.218957
v -0.511928 0.077024 0.218957
v -0.452389 0.136563 0.218957
v -0.371058 0.158355 0.218957
v 0.503640 0.077024 0.218957
v 0.444101 0.136563 0.218957
v 0.362770 0.158355 0.218957
v 0.306772 0.141926 0.218957
v -0.008789 0.158355 0.218957
v -0.090120 0.136563 0.218957
v -0.289727 0.136563 0.218957
v -0.149658 0.077024 0.218957
v -0.230189 0.077024 0.218957
v -0.171451 -0.004307 0.218957
v -0.208396 -0.004307 0.218957
v -0.148685 -0.087811 0.218957
v -0.230189 -0.085638 0.218957
v -0.289727 -0.145176 0.218957
v -0.092583 -0.146914 0.218957
v -0.656026 -0.269552 -0.218956
v 0.641102 -0.269552 -0.218956
v 0.641102 0.290652 -0.218956
v -0.656026 0.290652 -0.218956
v 0.362770 -0.166969 -0.218956
v 0.444101 -0.145176 -0.218956
v -0.452389 -0.145176 -0.218956
v -0.371058 -0.166969 -0.218956
v -0.511928 -0.085638 -0.218956
v 0.503640 -0.085638 -0.218956
v -0.013264 -0.166569 -0.218956
v 0.275079 -0.141522 -0.218956
v 0.072542 -0.145176 -0.218956
v 0.132081 -0.085638 -0.218956
v 0.209985 -0.083191 -0.218956
v 0.189931 -0.008346 -0.218956
v 0.153873 -0.004307 -0.218956
v 0.209985 0.066498 -0.218956
v 0.132081 0.077024 -0.218956
v 0.255780 0.119447 -0.218956
v 0.072542 0.136563 -0.218956
v -0.533720 -0.004307 -0.218956
v 0.525432 -0.004307 -0.218956
v -0.511928 0.077024 -0.218956
v -0.452389 0.136563 -0.218956
v -0.371058 0.158355 -0.218956
v 0.503640 0.077024 -0.218956
v 0.444101 0.136563 -0.218956
v 0.362770 0.158355 -0.218956
v 0.306772 0.141926 -0.218956
v -0.008789 0.158355 -0.218956
v -0.090120 0.136563 -0.218956
v -0.289727 0.136563 -0.218956
v -0.149658 0.077024 -0.218956
v -0.230189 0.077024 -0.218956
v -0.171451 -0.004307 -0.218956
v -0.208396 -0.004307 -0.218956
v -0.148685 -0.087811 -0.218956
v -0.230189 -0.085638 -0.218956
v -0.289727 -0.145176 -0.218956
v -0.092583 -0.146914 -0.218956
vt 0.282075 0.515816
vt 0.324037 0.527041
vt 0.180435 0.579882
vt 0.849673 0.579882
vt 0.702647 0.527041
vt 0.744609 0.515816
vt 0.775327 0.485148
vt 0.251357 0.485148
vt 0.515739 0.527041
vt 0.365999 0.515816
vt 0.473777 0.515816
vt 0.443059 0.485148
vt 0.374597 0.512110
vt 0.402865 0.483888
vt 0.413212 0.445336
vt 0.431815 0.443255
vt 0.402865 0.406784
vt 0.443059 0.401362
vt 0.374597 0.378562
vt 0.473777 0.370694
vt 0.786571 0.443255
vt 0.240114 0.443255
vt 0.849673 0.291323
vt 0.180435 0.291323
vt 0.775327 0.401362
vt 0.744609 0.370694
vt 0.702647 0.359469
vt 0.251357 0.401362
vt 0.282075 0.370694
vt 0.324037 0.359469
vt 0.365999 0.370694
vt 0.515739 0.359469
vt 0.557700 0.370694
vt 0.660685 0.370694
vt 0.588419 0.401362
vt 0.629967 0.401362
vt 0.599662 0.443255
vt 0.618724 0.443255
vt 0.588419 0.485148
vt 0.629967 0.485148
vt 0.587240 0.488490
vt 0.660685 0.515816
vt 0.558972 0.516711
vt 0.520356 0.527041
vt 0.178523 0.035824
vt 0.178523 0.250420
vt 0.839012 0.250420
vt 0.839012 0.035824
vt 0.597350 0.229190
vt 0.200206 0.229190
vt 0.200208 0.049887
vt 0.597349 0.049887
vt 0.832967 0.242239
vt 0.194720 0.242239
vt 0.194720 0.029239
vt 0.832967 0.029239
vt 0.844092 0.568107
vt 0.702006 0.517636
vt 0.743525 0.506913
vt 0.285877 0.506913
vt 0.327395 0.517636
vt 0.181922 0.568107
vt 0.255483 0.477620
vt 0.773919 0.477620
vt 0.512330 0.517636
vt 0.660488 0.506913
vt 0.553848 0.506913
vt 0.651981 0.503373
vt 0.584242 0.477620
vt 0.624011 0.476416
vt 0.613774 0.439592
vt 0.595367 0.437605
vt 0.624011 0.402768
vt 0.584242 0.397589
vt 0.651981 0.375811
vt 0.553848 0.368296
vt 0.244358 0.437605
vt 0.785044 0.437605
vt 0.181922 0.292482
vt 0.844092 0.292482
vt 0.255483 0.397589
vt 0.285877 0.368296
vt 0.327395 0.357574
vt 0.773919 0.397589
vt 0.743525 0.368296
vt 0.702006 0.357574
vt 0.660488 0.368296
vt 0.512330 0.357574
vt 0.470811 0.368296
vt 0.368914 0.368296
vt 0.440417 0.397589
vt 0.399308 0.397589
vt 0.429293 0.437605
vt 0.410432 0.437605
vt 0.440417 0.477620
vt 0.399308 0.477620
vt 0.368914 0.506913
vt 0.441584 0.480812
vt 0.469553 0.507769
vt 0.507761 0.517635
vt 0.219575 0.244293
vt 0.219574 0.041436
vt 0.643648 0.041436
vt 0.643647 0.244293
vt 0.428280 0.345539
vt 0.445624 0.345539
vt 0.445624 0.331692
vt 0.428280 0.331692
vt 0.413773 0.345539
vt 0.413773 0.331692
vt 0.401087 0.331692
vt 0.401087 0.345539
vt 0.456831 0.345539
vt 0.456831 0.331692
vt 0.456831 0.331692
vt 0.445624 0.331692
vt 0.445624 0.345539
vt 0.456831 0.345539
vt 0.461489 0.345539
vt 0.461489 0.331692
vt 0.401087 0.347966
vt 0.401087 0.335224
vt 0.396429 0.335224
vt 0.396429 0.347966
vt 0.461489 0.347966
vt 0.461489 0.335224
vt 0.456831 0.335224
vt 0.456831 0.347966
vt 0.404233 0.347966
vt 0.404234 0.335224
vt 0.461097 0.331516
vt 0.457163 0.331516
vt 0.457163 0.345413
vt 0.461097 0.345413
vt 0.396600 0.331516
vt 0.392349 0.331516
vt 0.392349 0.345413
vt 0.396600 0.345413
vt 0.444109 0.345413
vt 0.444109 0.331516
vt 0.409654 0.345413
vt 0.409654 0.331516
vt 0.427121 0.345413
vt 0.427121 0.331516
vt 0.428280 0.335224
vt 0.428280 0.347966
vt 0.445624 0.347966
vt 0.445624 0.335224
vt 0.413773 0.335224
vt 0.413773 0.347966
vt 0.401087 0.335224
vt 0.401087 0.347966
vt 0.456831 0.347966
vt 0.456831 0.335224
vt 0.396429 0.335224
vt 0.396429 0.347966
vt 0.461489 0.347966
vt 0.461489 0.335224
vt 0.461097 0.331516
vt 0.457163 0.331516
vt 0.457163 0.345413
vt 0.461097 0.345413
vt 0.392349 0.345413
vt 0.396600 0.345413
vt 0.396600 0.331516
vt 0.392349 0.331516
vt 0.444109 0.345413
vt 0.444109 0.331516
vt 0.409654 0.331516
vt 0.409654 0.345413
vt 0.427121 0.345413
vt 0.427121 0.331516
vt 0.428280 0.335224
vt 0.428280 0.347966
vt 0.445624 0.347966
vt 0.445624 0.335224
vt 0.413773 0.335224
vt 0.413773 0.347966
vt 0.401087 0.347966
vt 0.401087 0.335224
vt 0.396429 0.335224
vt 0.396429 0.347966
vt 0.461097 0.331516
vt 0.457163 0.331516
vt 0.457163 0.345413
vt 0.461097 0.345413
vt 0.396600 0.331516
vt 0.392349 0.331516
vt 0.392349 0.345413
vt 0.396600 0.345413
vt 0.444109 0.345413
vt 0.444109 0.331516
vt 0.409654 0.345413
vt 0.409654 0.331516
vt 0.427121 0.345413
vt 0.427121 0.331516
vn 0.0000 -0.0000 1.0000
vn 0.0000 -1.0000 -0.0000
vn 1.0000 -0.0000 0.0000
vn 0.0000 1.0000 -0.0000
vn -0.0000 0.0000 -1.0000
vn -1.0000 -0.0000 0.0000
vn 0.9659 0.2588 0.0000
vn 0.9659 -0.2588 -0.0000
vn 0.7564 -0.6542 -0.0000
vn 0.6674 0.7447 0.0000
vn 0.7253 0.6885 0.0000
vn 0.2405 0.9706 0.0000
vn 0.2815 -0.9596 -0.0000
vn 0.2787 0.9604 0.0000
vn 0.4034 -0.9150 -0.0000
vn -0.2588 -0.9659 -0.0000
vn -0.2588 0.9659 0.0000
vn -0.7071 -0.7071 -0.0000
vn -0.7071 0.7071 0.0000
vn -0.9659 -0.2588 -0.0000
vn -0.9659 0.2588 0.0000
vn 0.7071 -0.7071 -0.0000
vn 0.7071 0.7071 0.0000
vn 0.2588 -0.9659 -0.0000
vn 0.2588 0.9659 0.0000
vn 0.9648 0.2630 0.0000
vn -0.2419 0.9703 0.0000
usemtl Material_01
s 1
f 1/1/1 2/2/1 3/3/1
f 4/4/1 5/5/1 6/6/1
f 4/4/1 6/6/1 7/7/1
f 8/8/1 1/1/1 3/3/1
f 9/9/1 5/5/1 4/4/1
f 9/9/1 4/4/1 3/3/1
f 2/2/1 9/9/1 3/3/1
f 9/9/1 2/2/1 10/10/1
f 11/11/1 9/9/1 10/10/1
f 12/12/1 11/11/1 10/13/1
f 12/12/1 10/13/1 13/14/1
f 12/12/1 13/14/1 14/15/1
f 15/16/1 12/12/1 14/15/1
f 15/16/1 14/15/1 16/17/1
f 17/18/1 15/16/1 16/17/1
f 17/18/1 16/17/1 18/19/1
f 19/20/1 17/18/1 18/19/1
f 4/4/1 7/7/1 20/21/1
f 21/22/1 8/8/1 3/3/1
f 22/23/1 4/4/1 20/21/1
f 21/22/1 3/3/1 23/24/1
f 22/23/1 20/21/1 24/25/1
f 22/23/1 24/25/1 25/26/1
f 22/23/1 25/26/1 26/27/1
f 27/28/1 21/22/1 23/24/1
f 28/29/1 27/28/1 23/24/1
f 29/30/1 28/29/1 23/24/1
f 19/20/1 18/19/1 30/31/1
f 19/20/1 30/31/1 29/30/1
f 31/32/1 19/20/1 29/30/1
f 31/32/1 29/30/1 23/24/1
f 31/32/1 23/24/1 22/23/1
f 31/32/1 22/23/1 26/27/1
f 32/33/1 31/32/1 26/27/1
f 32/33/1 26/27/1 33/34/1
f 34/35/1 32/33/1 33/34/1
f 34/35/1 33/34/1 35/36/1
f 36/37/1 34/35/1 35/36/1
f 36/37/1 35/36/1 37/38/1
f 38/39/1 36/37/1 37/38/1
f 38/39/1 37/38/1 39/40/1
f 38/41/1 39/40/1 40/42/1
f 41/43/1 38/41/1 40/42/1
f 41/43/1 40/42/1 5/5/1
f 9/44/1 41/43/1 5/5/1
f 4/45/2 42/46/2 43/47/2
f 3/48/2 4/45/2 43/47/2
f 23/49/3 3/50/3 43/51/3
f 44/52/3 23/49/3 43/51/3
f 44/53/4 45/54/4 22/55/4
f 23/56/4 44/53/4 22/55/4
f 43/57/5 46/58/5 47/59/5
f 48/60/5 49/61/5 42/62/5
f 50/63/5 48/60/5 42/62/5
f 43/57/5 47/59/5 51/64/5
f 42/62/5 49/61/5 52/65/5
f 43/57/5 42/62/5 52/65/5
f 46/58/5 43/57/5 52/65/5
f 53/66/5 46/58/5 52/65/5
f 53/66/5 52/65/5 54/67/5
f 53/68/5 54/67/5 55/69/5
f 56/70/5 53/68/5 55/69/5
f 57/71/5 56/70/5 55/69/5
f 57/71/5 55/69/5 58/72/5
f 59/73/5 57/71/5 58/72/5
f 59/73/5 58/72/5 60/74/5
f 61/75/5 59/73/5 60/74/5
f 61/75/5 60/74/5 62/76/5
f 63/77/5 50/63/5 42/62/5
f 43/57/5 51/64/5 64/78/5
f 63/77/5 42/62/5 45/79/5
f 44/80/5 43/57/5 64/78/5
f 65/81/5 63/77/5 45/79/5
f 66/82/5 65/81/5 45/79/5
f 67/83/5 66/82/5 45/79/5
f 44/80/5 64/78/5 68/84/5
f 44/80/5 68/84/5 69/85/5
f 44/80/5 69/85/5 70/86/5
f 71/87/5 61/75/5 62/76/5
f 70/86/5 71/87/5 62/76/5
f 70/86/5 62/76/5 72/88/5
f 44/80/5 70/86/5 72/88/5
f 45/79/5 44/80/5 72/88/5
f 67/83/5 45/79/5 72/88/5
f 67/83/5 72/88/5 73/89/5
f 74/90/5 67/83/5 73/89/5
f 74/90/5 73/89/5 75/91/5
f 76/92/5 74/90/5 75/91/5
f 76/92/5 75/91/5 77/93/5
f 78/94/5 76/92/5 77/93/5
f 78/94/5 77/93/5 79/95/5
f 80/96/5 78/94/5 79/95/5
f 81/97/5 80/96/5 79/98/5
f 81/97/5 79/98/5 82/99/5
f 49/61/5 81/97/5 82/99/5
f 49/61/5 82/99/5 52/100/5
f 42/101/6 4/102/6 22/103/6
f 45/104/6 42/101/6 22/103/6
f 14/105/7 13/106/7 56/107/7
f 57/108/7 14/105/7 56/107/7
f 16/109/8 14/105/8 57/108/8
f 59/110/8 16/109/8 57/108/8
f 59/110/9 61/111/9 18/112/9
f 16/109/9 59/110/9 18/112/9
f 13/106/10 10/113/10 53/114/10
f 56/107/10 13/106/10 53/114/10
f 82/115/11 79/116/11 38/117/11
f 41/118/11 82/115/11 38/117/11
f 9/119/12 52/120/12 82/115/12
f 41/118/12 9/119/12 82/115/12
f 30/121/13 71/122/13 70/123/13
f 29/124/13 30/121/13 70/123/13
f 2/125/14 46/126/14 53/127/14
f 10/128/14 2/125/14 53/127/14
f 30/121/15 18/129/15 61/130/15
f 71/122/15 30/121/15 61/130/15
f 70/131/16 69/132/16 28/133/16
f 29/134/16 70/131/16 28/133/16
f 47/135/17 46/136/17 2/137/17
f 1/138/17 47/135/17 2/137/17
f 27/139/18 28/133/18 69/132/18
f 68/140/18 27/139/18 69/132/18
f 1/138/19 8/141/19 51/142/19
f 47/135/19 1/138/19 51/142/19
f 21/143/20 27/139/20 68/140/20
f 64/144/20 21/143/20 68/140/20
f 21/143/21 64/144/21 51/142/21
f 8/141/21 21/143/21 51/142/21
f 63/145/7 20/146/7 7/147/7
f 50/148/7 63/145/7 7/147/7
f 63/145/8 65/149/8 24/150/8
f 20/146/8 63/145/8 24/150/8
f 66/151/22 25/152/22 24/150/22
f 65/149/22 66/151/22 24/150/22
f 6/153/23 48/154/23 50/148/23
f 7/147/23 6/153/23 50/148/23
f 25/152/24 66/151/24 67/155/24
f 26/156/24 25/152/24 67/155/24
f 5/157/25 49/158/25 48/154/25
f 6/153/25 5/157/25 48/154/25
f 67/159/16 74/160/16 33/161/16
f 26/162/16 67/159/16 33/161/16
f 5/163/17 40/164/17 81/165/17
f 49/166/17 5/163/17 81/165/17
f 35/167/18 33/161/18 74/160/18
f 76/168/18 35/167/18 74/160/18
f 80/169/19 81/165/19 40/164/19
f 39/170/19 80/169/19 40/164/19
f 37/171/21 78/172/21 80/169/21
f 39/170/21 37/171/21 80/169/21
f 37/171/20 35/167/20 76/168/20
f 78/172/20 37/171/20 76/168/20
f 77/173/26 36/174/26 38/175/26
f 79/176/26 77/173/26 38/175/26
f 77/173/8 75/177/8 34/178/8
f 36/174/8 77/173/8 34/178/8
f 32/179/24 73/180/24 72/181/24
f 31/182/24 32/179/24 72/181/24
f 73/180/22 32/179/22 34/178/22
f 75/177/22 73/180/22 34/178/22
f 72/183/16 62/184/16 19/185/16
f 31/186/16 72/183/16 19/185/16
f 54/187/27 52/188/27 9/189/27
f 11/190/27 54/187/27 9/189/27
f 17/191/18 19/185/18 62/184/18
f 60/192/18 17/191/18 62/184/18
f 11/190/19 12/193/19 55/194/19
f 54/187/19 11/190/19 55/194/19
f 15/195/20 17/191/20 60/192/20
f 58/196/20 15/195/20 60/192/20
f 15/195/21 58/196/21 55/194/21
f 12/193/21 15/195/21 55/194/21
