# Blender v2.79 (sub 0) OBJ File: ''
# www.blender.org
mtllib ConcreetBrick.mtl
o Cube3_Cube3.001
v -0.254348 -0.119651 0.123984
v -0.254348 -0.119651 -0.123984
v 0.250216 -0.119651 -0.123984
v 0.250216 -0.119651 0.123984
v 0.250216 0.119186 0.123984
v 0.250216 0.119186 -0.123984
v -0.254348 0.119186 -0.123984
v -0.254348 0.119186 0.123984
v -0.192660 -0.078371 0.123984
v -0.192660 -0.078371 -0.123984
v -0.192660 0.081269 -0.123984
v -0.192660 0.081269 0.123984
v -0.024824 0.081269 0.123984
v -0.024824 0.081269 -0.123984
v -0.024824 -0.078371 0.123984
v -0.024824 -0.078371 -0.123984
v 0.031354 -0.078371 -0.123984
v 0.031354 -0.078371 0.123984
v 0.199191 -0.078371 0.123984
v 0.199191 -0.078371 -0.123984
v 0.031354 0.081269 0.123984
v 0.031354 0.081269 -0.123984
v 0.199190 0.081269 -0.123984
v 0.199190 0.081269 0.123984
v -0.236411 0.056239 0.123984
v -0.236411 -0.058904 0.123984
v 0.231616 -0.058904 0.123984
v 0.231616 0.056239 0.123984
v 0.250216 -0.058904 -0.123984
v 0.231616 -0.058904 -0.123984
v 0.250216 0.056239 0.123984
v 0.250216 0.056239 -0.123984
v -0.236411 -0.058904 -0.123984
v -0.236411 0.056239 -0.123984
v -0.254348 0.056239 0.123984
v 0.231616 0.056239 -0.123984
v 0.250216 -0.058904 0.123984
v -0.254348 -0.058904 -0.123984
v -0.254348 -0.058904 0.123984
v -0.254348 0.056239 -0.123984
vt 0.017283 0.212634
vt 0.143505 0.215187
vt 0.142753 0.022703
vt 0.016797 0.020623
vt 0.147960 0.214195
vt 0.018506 0.213036
vt 0.019401 0.016543
vt 0.147912 0.017739
vt 0.149006 0.210081
vt 0.018300 0.210081
vt 0.018300 0.017785
vt 0.149006 0.017785
vt 0.147221 0.016988
vt 0.022110 0.016988
vt 0.022110 0.214948
vt 0.147221 0.214948
vt 0.021173 0.212965
vt 0.021173 0.011782
vt 0.145407 0.011782
vt 0.145408 0.212965
vt 0.013715 0.020162
vt 0.147474 0.020162
vt 0.147474 0.211094
vt 0.013715 0.211094
vt 0.022748 0.211387
vt 0.022748 0.016205
vt 0.146114 0.016205
vt 0.146114 0.211387
vt 0.149474 0.211820
vt 0.149474 0.013712
vt 0.021322 0.013712
vt 0.021322 0.211820
vt 0.023654 0.210772
vt 0.147449 0.210116
vt 0.148399 0.010671
vt 0.024604 0.011327
vt 0.020678 0.013712
vt 0.020678 0.211820
vt 0.148830 0.211820
vt 0.148830 0.013712
vt 0.717798 0.672441
vt 0.717798 0.865609
vt 0.653127 0.865609
vt 0.653127 0.672441
vt 0.961371 0.702727
vt 0.961369 0.842064
vt 0.911006 0.865609
vt 0.911006 0.672441
vt 0.982111 0.626559
vt 0.401180 0.626559
vt 0.982019 0.626559
vt 0.982098 0.915558
vt 0.982019 0.915558
vt 0.401180 0.915558
vt 0.459918 0.865609
vt 0.422601 0.842113
vt 0.422572 0.702673
vt 0.459919 0.672440
vt 0.975132 0.843872
vt 0.915673 0.867643
vt 0.953466 0.843912
vt 0.046655 0.739845
vt 0.336154 0.812053
vt 0.046658 0.812053
vt 0.401092 0.702759
vt 0.975022 0.704449
vt 0.915673 0.674110
vt 0.975052 0.628143
vt 0.720357 0.674111
vt 0.720357 0.867643
vt 0.654981 0.867643
vt 0.654981 0.674111
vt 0.459666 0.867643
vt 0.408745 0.843991
vt 0.408752 0.704455
vt 0.459666 0.674111
vt 0.408752 0.704429
vt 0.387998 0.628143
vt 0.387878 0.628143
vt 0.982111 0.702686
vt 0.387783 0.917687
vt 0.975052 0.917687
vt 0.387878 0.917687
vt 0.975063 0.917508
vt 0.953407 0.704455
vt 0.953411 0.704449
vt 0.345100 0.852443
vt 0.043874 0.852443
vt 0.043874 0.708777
vt 0.345100 0.708777
vt 0.046658 0.833403
vt 0.336155 0.833403
vt 0.336155 0.833403
vt 0.046658 0.833403
vt 0.046658 0.812053
vt 0.336154 0.812053
vt 0.336154 0.812053
vt 0.336155 0.833403
vt 0.046658 0.833403
vt 0.046658 0.812053
vt 0.046689 0.696140
vt 0.336649 0.696140
vt 0.336649 0.833755
vt 0.046689 0.833755
vt 0.046658 0.812053
vt 0.336154 0.812053
vt 0.336155 0.833403
vt 0.046658 0.833403
vt 0.336157 0.739845
vt 0.387998 0.704429
vt 0.401101 0.841998
vt 0.046661 0.739850
vt 0.336151 0.739850
vt 0.046658 0.812053
vt 0.336152 0.739850
vt 0.336154 0.812053
vt 0.336157 0.739844
vt 0.046655 0.739845
vt 0.982098 0.842064
vt 0.387783 0.843991
vt 0.046661 0.739850
vn 0.0000 -1.0000 -0.0000
vn 0.0000 1.0000 0.0000
vn 1.0000 0.0000 0.0000
vn -1.0000 0.0000 0.0000
vn -0.0000 0.0000 1.0000
vn 0.0000 0.0000 -1.0000
usemtl Material_#1.003
s 1
f 1/1/1 2/2/1 3/3/1
f 4/4/1 1/1/1 3/3/1
f 5/5/2 6/6/2 7/7/2
f 8/8/2 5/5/2 7/7/2
f 9/9/3 10/10/3 11/11/3
f 12/12/3 9/9/3 11/11/3
f 13/13/1 12/14/1 11/15/1
f 14/16/1 13/13/1 11/15/1
f 10/17/2 9/18/2 15/19/2
f 16/20/2 10/17/2 15/19/2
f 13/21/4 14/22/4 16/23/4
f 15/24/4 13/21/4 16/23/4
f 17/25/2 18/26/2 19/27/2
f 20/28/2 17/25/2 19/27/2
f 21/29/3 18/30/3 17/31/3
f 22/32/3 21/29/3 17/31/3
f 23/33/1 24/34/1 21/35/1
f 22/36/1 23/33/1 21/35/1
f 19/37/4 24/38/4 23/39/4
f 20/40/4 19/37/4 23/39/4
f 13/41/5 15/42/5 18/43/5
f 13/41/5 18/43/5 21/44/5
f 25/45/5 26/46/5 9/47/5
f 25/45/5 9/47/5 12/48/5
f 8/49/5 12/48/5 13/41/5
f 5/50/5 8/51/5 13/41/5
f 15/42/5 9/47/5 1/52/5
f 15/42/5 1/53/5 4/54/5
f 18/43/5 15/42/5 4/54/5
f 19/55/5 18/43/5 4/54/5
f 19/55/5 27/56/5 28/57/5
f 24/58/5 19/55/5 28/57/5
f 29/59/6 20/60/6 30/61/6
f 21/44/5 24/58/5 5/50/5
f 13/41/5 21/44/5 5/50/5
f 6/62/3 31/63/3 32/64/3
f 31/65/5 24/58/5 28/57/5
f 32/66/6 23/67/6 6/68/6
f 22/69/6 17/70/6 16/71/6
f 22/69/6 16/71/6 14/72/6
f 10/73/6 33/74/6 34/75/6
f 11/76/6 10/73/6 34/77/6
f 14/72/6 11/76/6 7/78/6
f 14/72/6 7/79/6 6/68/6
f 25/45/5 8/49/5 35/80/5
f 2/81/6 10/73/6 16/71/6
f 3/82/6 2/83/6 16/71/6
f 3/82/6 16/71/6 17/70/6
f 3/84/6 17/70/6 20/60/6
f 36/85/6 30/61/6 20/60/6
f 36/86/6 20/60/6 23/67/6
f 6/68/6 23/67/6 22/69/6
f 14/72/6 6/68/6 22/69/6
f 27/87/3 30/88/3 36/89/3
f 28/90/3 27/87/3 36/89/3
f 36/91/1 32/64/1 31/63/1
f 28/92/1 36/91/1 31/63/1
f 30/93/2 27/94/2 37/95/2
f 29/96/2 30/93/2 37/95/2
f 33/97/2 38/98/2 39/99/2
f 26/100/2 33/97/2 39/99/2
f 25/101/4 34/102/4 33/103/4
f 26/104/4 25/101/4 33/103/4
f 35/105/1 40/106/1 34/107/1
f 25/108/1 35/105/1 34/107/1
f 29/59/6 3/84/6 20/60/6
f 6/62/3 5/109/3 31/63/3
f 31/65/5 5/50/5 24/58/5
f 32/66/6 36/86/6 23/67/6
f 25/45/5 12/48/5 8/49/5
usemtl Material_#1.003_NONE
f 7/78/6 34/77/6 40/110/6
f 37/111/5 19/55/5 4/54/5
f 29/96/3 4/112/3 3/113/3
f 2/81/6 33/74/6 10/73/6
f 1/114/4 38/115/4 2/116/4
f 7/117/4 35/105/4 8/118/4
f 1/52/5 26/46/5 39/119/5
f 7/78/6 11/76/6 34/77/6
f 37/111/5 27/56/5 19/55/5
f 29/96/3 37/95/3 4/112/3
f 2/81/6 38/120/6 33/74/6
f 1/114/4 39/121/4 38/115/4
f 7/117/4 40/106/4 35/105/4
f 1/52/5 9/47/5 26/46/5
