# Blender v2.79 (sub 0) OBJ File: 'TechDemoMap.blend'
# www.blender.org
mtllib TechDemoMap.mtl
o Walls_Plane.001
v -40.000000 1.000000 -40.000000
v 40.000000 1.000000 -40.000000
v -40.000000 21.000000 -40.000000
v 40.000000 21.000000 -40.000000
v 40.000000 21.000000 40.000000
v 40.000000 1.000000 40.000000
v -40.000000 1.000000 40.000000
v -40.000000 21.000000 40.000000
v 30.000000 1.000000 5.000000
v 30.000000 6.000000 5.000000
v 30.000000 6.000000 -5.000000
v 30.000000 1.000000 -5.000000
v 30.000000 1.000000 5.000000
v 30.000000 6.000000 5.000000
v 40.000000 6.000000 5.000000
v 40.000000 1.000000 5.000000
v 40.000000 1.000000 -5.000000
v 40.000000 6.000000 -5.000000
v 30.000000 6.000000 -5.000000
v 30.000000 1.000000 -5.000000
v 36.000000 4.000000 6.000000
v 36.000000 5.000000 6.000000
v 40.000000 5.000000 6.000000
v 40.000000 4.000000 6.000000
v 36.000000 3.000000 7.000000
v 36.000000 4.000000 7.000000
v 40.000000 4.000000 7.000000
v 40.000000 3.000000 7.000000
v 36.000000 2.000000 8.000000
v 36.000000 3.000000 8.000000
v 40.000000 3.000000 8.000000
v 40.000000 2.000000 8.000000
v 36.000000 1.000000 9.000000
v 36.000000 2.000000 9.000000
v 40.000000 2.000000 9.000000
v 40.000000 1.000000 9.000000
v 36.000000 4.000000 5.000000
v 36.000000 5.000000 5.000000
v 36.000000 5.000000 6.000000
v 36.000000 4.000000 6.000000
v 36.000000 3.000000 5.000000
v 36.000000 4.000000 5.000000
v 36.000000 4.000000 7.000000
v 36.000000 3.000000 7.000000
v 36.000000 2.000000 5.000000
v 36.000000 3.000000 5.000000
v 36.000000 3.000000 8.000000
v 36.000000 2.000000 8.000000
v 36.000000 1.000000 5.000000
v 36.000000 2.000000 5.000000
v 36.000000 2.000000 9.000000
v 36.000000 1.000000 9.000000
vt -38.994942 -8.999185
vt 40.994942 -8.999185
vt 40.994942 10.999232
vt -38.994934 10.999232
vt -38.994942 -8.999185
vt -38.994934 10.999232
vt 40.994942 -8.999185
vt 40.994942 10.999232
vt 5.989189 -0.994946
vt 5.998358 3.980698
vt -3.999645 3.996278
vt -3.999448 -0.996279
vt 5.989189 -0.994946
vt 5.998358 3.980698
vt -3.999645 3.996278
vt -3.999448 -0.996279
vt 5.989189 -0.994946
vt 5.998358 3.980698
vt -3.999645 3.996278
vt -3.999448 -0.996279
vt 3.987467 0.001263
vt 4.005805 0.995174
vt -0.003561 0.999069
vt -0.003167 0.000930
vt 3.987467 0.001263
vt 4.005805 0.995174
vt -0.003561 0.999069
vt -0.003167 0.000930
vt 3.987467 0.001263
vt 4.005805 0.995174
vt -0.003561 0.999069
vt -0.003167 0.000930
vt 3.987467 0.001263
vt 4.005805 0.995174
vt -0.003561 0.999069
vt -0.003167 0.000930
vt 1.000000 0.001263
vt 1.000000 0.995174
vt -0.003561 0.999069
vt -0.003167 0.000930
vt 2.000000 0.001263
vt 2.000000 0.995174
vt -0.003561 0.999069
vt -0.003167 0.000930
vt 3.000000 0.001263
vt 3.000000 0.995174
vt -0.003561 0.999069
vt -0.003167 0.000930
vt 3.987467 0.001263
vt 4.005805 0.995174
vt -0.003561 0.999069
vt -0.003167 0.000930
vn 0.0000 0.0000 1.0000
vn -1.0000 0.0000 0.0000
vn 0.0000 0.0000 -1.0000
vn 1.0000 0.0000 0.0000
usemtl WallsMat
s off
f 1/1/1 2/2/1 4/3/1 3/4/1
f 6/5/2 5/6/2 4/3/2 2/2/2
f 6/5/3 7/7/3 8/8/3 5/6/3
f 1/1/4 3/4/4 8/8/4 7/7/4
f 9/9/2 10/10/2 11/11/2 12/12/2
f 16/13/1 15/14/1 14/15/1 13/16/1
f 20/17/3 19/18/3 18/19/3 17/20/3
f 24/21/1 23/22/1 22/23/1 21/24/1
f 28/25/1 27/26/1 26/27/1 25/28/1
f 32/29/1 31/30/1 30/31/1 29/32/1
f 36/33/1 35/34/1 34/35/1 33/36/1
f 40/37/2 39/38/2 38/39/2 37/40/2
f 44/41/2 43/42/2 42/43/2 41/44/2
f 48/45/2 47/46/2 46/47/2 45/48/2
f 52/49/2 51/50/2 50/51/2 49/52/2
o Floors_Plane
v -40.000000 1.000000 40.000000
v 40.000000 1.000000 40.000000
v -40.000000 1.000000 -40.000000
v 40.000000 1.000000 -40.000000
v 30.000000 6.000000 -5.000000
v 30.000000 6.000000 5.000000
v 40.000000 6.000000 -5.000000
v 40.000000 6.000000 5.000000
v 36.000000 5.000000 5.000000
v 36.000000 5.000000 6.000000
v 40.000000 5.000000 5.000000
v 40.000000 5.000000 6.000000
v 36.000000 4.000000 6.000000
v 36.000000 4.000000 7.000000
v 40.000000 4.000000 6.000000
v 40.000000 4.000000 7.000000
v 36.000000 3.000000 7.000000
v 36.000000 3.000000 8.000000
v 40.000000 3.000000 7.000000
v 40.000000 3.000000 8.000000
v 36.000000 2.000000 8.000000
v 36.000000 2.000000 9.000000
v 40.000000 2.000000 8.000000
v 40.000000 2.000000 9.000000
vt -39.991734 -38.992172
vt 39.992275 -38.992188
vt 39.992275 40.991806
vt -39.991703 40.991806
vt -4.998730 -3.999187
vt 4.999271 -3.999191
vt 4.999271 5.998810
vt -4.998726 5.998810
vt 0.000100 0.999900
vt 0.000100 0.000100
vt 3.999900 0.000100
vt 3.999900 0.999900
vt 0.000100 0.999900
vt 0.000100 0.000100
vt 3.999900 0.000100
vt 3.999900 0.999900
vt 0.000100 0.999900
vt 0.000100 0.000100
vt 3.999900 0.000100
vt 3.999900 0.999900
vt 0.000100 0.999900
vt 0.000100 0.000100
vt 3.999900 0.000100
vt 3.999900 0.999900
vn 0.0000 1.0000 0.0000
usemtl FloorsMat
s off
f 53/53/5 54/54/5 56/55/5 55/56/5
f 57/57/5 58/58/5 60/59/5 59/60/5
f 61/61/5 62/62/5 64/63/5 63/64/5
f 65/65/5 66/66/5 68/67/5 67/68/5
f 69/69/5 70/70/5 72/71/5 71/72/5
f 73/73/5 74/74/5 76/75/5 75/76/5
